<?xml version="1.0" encoding="UTF-8"?>
<svg 
xmlns="http://www.w3.org/2000/svg"
    width="496"
    height="496"
    viewBox="0 0 496 496"
    xmlSpace="preserve"
    className={`w-full h-auto ${className}`}
    {...rest}
>
<path transform="translate(681,320)" d="m0 0 3 1 7 36 16 62v6l-20 12-5-2-14-12-10-9-13-10-13-13 5 26 8 39v6l-10 6-9 6-7-4-11-10-10-8-11-10-14-11-15-14-14-10v-3l18-12 4 1 11 10 8 7 17 14 12 11 6 5-3-11-7-38-5-20v-5l16-9 4 1 10 7 10 10 11 9 14 12 9 8-1-8-15-61 1-4 9-6z" fill="#050505"/>
<path transform="translate(1605,1222)" d="m0 0 8 3 16 8 24 10 22 11 18 8 4 2-1 4-11 26-7 16-9 12-11 12-8 4-14 3h-13l-12-3-12-6-10-9-6-12-3-10v-18l4-15 6-15 8-17zm7 31-3 7-6 13-3 10v10l4 10 8 9 12 5 13 1 12-4 7-5 5-9 6-15 3-5-1-3-22-11-29-12z" fill="#040404"/>
<path transform="translate(953,253)" d="m0 0 55 1 16 4 12 6 8 8 8 14 2 6 1 7v13l-4 13-6 10-10 10-13 7-11 3-15 1h-43l-1-1v-101zm24 19-2 1v63l5 1h19l13-2 10-7 6-8 3-9v-13l-4-11-9-9-11-5-8-1z" fill="#030303"/>
<path transform="translate(1415,1461)" d="m0 0h8l3 13v4l-18 6-11 6-6 7-3 9 3 9 3 5 3-4 5-8 9-10 10-6 8-2h12l11 4 8 6 6 8 5 10 1 4v14l-4 9-7 12-7 5-12 4-10 1 4 5-1 4-10 8-4 3-4-1-12-16-7-8-10-12-8-11-8-10-5-12-1-3v-10l4-11 8-10 4-4h2l2-4 10-7 11-5zm15 51-9 2-6 4-4 8-1 10 3 8 5 6 5 2h11l9-6 6-8 1-2v-10l-3-6-7-6z" fill="#060606"/>
<path transform="translate(288,872)" d="m0 0 14 1 54 7 17 5 8 5 5 7 4 14v19l-4 18-4 10-5 6-6-1-9-6-1-4 6-10 4-12v-15l-4-6-5-4-10-4 5 12 1 5v8l-3 12-7 11-7 7-8 4-3 1h-21l-11-4-8-7-7-14-1-4v-17l4-12 4-6 3-4-7-1 1-17zm29 26-7 3-5 5-4 7-1 10 4 10 5 4 4 2h13l8-4 3-4 2-10v-7l-3-8-5-5-8-3z" fill="#060606"/>
<path transform="translate(1461,445)" d="m0 0 4 1 9 8 4 4-2 4-1 1 10 3 10 6 9 9 7 14v16l-4 10-8 11-11 8-12 4h-15l-13-5-8-6-10-20-11 11-9 12-4 1-11-9-5-5 1-4 11-9 9-10 8-10 12-12 8-9 7-8 10-9zm3 36-10 5-6 7-2 5v11l4 6 7 6 5 2h8l10-5 6-7 2-7v-9l-4-8-5-4-6-2z" fill="#050505"/>
<path transform="translate(815,269)" d="m0 0h5l8 34v2l5-5 7-6 7-3 5-1h12l10 3 9 6 7 9 5 11 2 7v14l-4 11-7 10-9 6-13 4h-14l-10-4 2 7-3 2-12 3h-6l-3-9-5-26-7-33-8-33v-5zm34 42-8 3-4 4-2 5v14l4 10 6 5 5 2h9l10-6 4-6 1-3v-12l-5-10-5-4-5-2z" fill="#050505"/>
<path transform="translate(1677,986)" d="m0 0h20l46 2 3 1v18l-1 6h-15l-23-1h-29l-10 3-4 4-2 7v13l3 8 5 4 7 3 17 2 39 2 9 1 1 1-1 21-1 1-28-1-34-2-12-3-8-4-11-10-5-8-3-11v-19l4-13 7-11 10-9 9-4z" fill="#070707"/>
<path transform="translate(1705,758)" d="m0 0 3 1 5 19-1 3-48 12-13 5-8 5-3 3-2 6v11l4 11 6 4 4 1h13l20-4 35-10h5l6 18-1 4-42 12-19 4h-22l-8-3-10-9-7-11-5-12-1-4v-19l4-11 4-6 10-8 11-6 18-6 28-7z" fill="#040404"/>
<path transform="translate(892,1635)" d="m0 0 23 2 3 7 5 15 3 1 35 2h10l10-19 1-1 17 1 6 1-1 4-8 14-7 12-8 16-12 22-4 7-8 16-4 6-1 1-16-1-7-1-3-5-10-27-7-23-11-29-6-17zm38 44 3 11 5 19 2 7 2 1 3-3 14-27 2-6-23-2z" fill="#050505"/>
<path transform="translate(1639,1082)" d="m0 0 4 2 8 7 7 8 8 10v2h2l5 5 9 10 3 1 19-9 28-11 5-3h2l-2 16-2 9-4 3-31 12h-3l2 5h2l7 8 10 10 6 7-1 11-3 13h-3l-7-9-4-3v-2l-4-2-7-8-12-13-4-4-5 1-25 10-25 12-5 1 2-13 3-12 5-3 25-12 8-3-6-8-20-20v-11z" fill="#050505"/>
<path transform="translate(1092,285)" d="m0 0h23l10 3 9 6 7 11 4 12v13l-2 7-14-1-38-6h-6l3 7 5 5 9 4h15l9-3 4 5 5 7-1 5-13 4-7 1h-10l-16-3-8-4-10-9-7-14-1-4v-11l3-11 5-9 6-7 10-6zm12 16-10 3-7 7-1 3 7 2 25 4h7l-1-6-7-9-6-3z" fill="#060606"/>
<path transform="translate(1566,1333)" d="m0 0h10l12 3 11 7 7 8 5 11 1 4v14l-4 10-6 10-9 9-10 5-4 1h-17l-12-4-7-4 1-6 12-17 6-10 9-14 3-6-10 1-9 5-5 4-4 9-3 13-1 1h-15l-1-4v-7l4-13 8-14 7-8 13-6zm19 30-12 19-8 10 1 3 4 1h8l8-5 6-9v-12l-4-7z" fill="#060606"/>
<path transform="translate(1525,528)" d="m0 0h9l13 4 11 7 7 9 5 11 1 4v16l-7 14-8 10-6 1-7-8-9-12-9-10-7-9-5-4-2 7 1 12 4 6 7 6 11 5 1 3-4 15-8-1-8-3-10-9-7-8-8-14-2-9v-7l4-13 6-9 9-7 13-6zm6 19-7 2 2 5 9 10 10 14 4 2 3-4 1-4v-9l-3-6-4-5-7-4z" fill="#070707"/>
<path transform="translate(452,538)" d="m0 0h19l9 3 6 4 4 5-1 5-12 15-10 13-9 12-1 4h8l8-3 8-6 4-6 3-15 4-1h13l2 1v9l-3 9-5 10-8 10-8 7-13 5-5 1h-10l-11-3-6-3-8-7-6-9-4-13v-10l3-10 7-11 9-10 10-5zm5 19-11 4-6 7-1 3v12l2 4 5 1 7-7 13-19-1-4z" fill="#070707"/>
<path transform="translate(326,1099)" d="m0 0h5l5 22 6 35 5-2 4-5 2-5v-12l-5-12-2-4-4-2 4-7 6-7 4 1 7 8 7 14 2 9v18l-4 11-8 10-7 6-10 4-5 1h-14l-10-4-9-7-8-10-5-12-1-5v-11l4-13 9-10 10-7 8-3zm-8 24-4 4-3 5-1 4v8l3 9 4 5 4 2h8v-7l-6-27-2-3z" fill="#070707"/>
<path transform="translate(1267,333)" d="m0 0 14 1 14 5 8 6 7 8 4 11v17l-3 10-3 4-6-2-33-13-16-8 1 9 4 6 8 7 8 3h9l4-1 4 9 2 9-2 1-13 1-16-2-12-6-9-8-8-16-1-3v-16l6-15 6-8 6-4 11-4zm1 18-6 4-3 4 8 5 19 8 3 2 5-1v-7l-3-6-5-5-4-3-3-1z" fill="#070707"/>
<path transform="translate(1255,1589)" d="m0 0h11l9 2 9 5 8 9 6 10 3 12-1 12-4 10-8 10-10 7-17 5h-9l-13-4-9-7-6-7-5-11 2-4 15-5 15-7 20-9 1-3-6-2-2-1h-13l-11 4-4 4-3 6-5-1-12-6 1-5 7-8 8-7 14-7zm22 41-20 8-12 4-2 2 5 6 5 3 9 1 12-6 6-9v-8z" fill="#070707"/>
<path transform="translate(397,1237)" d="m0 0h5l9 20-7 3-19 8-17 9-4 3-2 5v7l4 10 6 4 3 1h7l18-8 22-11h4l9 19v3l-19 7-38 19-11 4-5-1-6-13v-5l4-2v-2l-10-5-7-10-4-10-1-12 2-9 6-8 23-13 25-12z" fill="#050505"/>
<path transform="translate(1358,1535)" d="m0 0 3 1 7 14 11 17 11 20 7 11 1 4-11 7-4 3-5-1-4-4-1 5-9 10-7 6-11 4h-12l-9-4-8-7-11-18-10-17-7-11v-2l14-7 5-3h3l9 19 7 10 7 11 7 6h7l8-4 4-5 1-2v-13l-8-16-12-19-2-5 7-5z" fill="#060606"/>
<path transform="translate(1379,398)" d="m0 0h17l11 4 9 6 10 9 7 14 1 4v14l-4 10-8 10-9 8-10 4-4 1h-10l-13-4-10-6-10-10-5-8-3-9v-14l4-11 4-6 8-9 11-6zm11 19-10 4-7 8-4 10 1 9 4 6 5 5 5 2h11l8-4 7-9 2-5v-11l-4-7-8-6z" fill="#060606"/>
<path transform="translate(513,1421)" d="m0 0 3 1 4 6 7 7-1 4-3 3 7-1 10 6 9 9 6 10 1 3v10l-3 6-7 7-5 3-10 1-9-3-11-8-14-14-4-1-2 8 1 7 7 8 8 6 9 5 1 4-4 12-7-1-16-7-8-8-10-14-4-11 1-10 4-8 10-11 7-9 10-8 12-11zm9 21m-7 11-6 4-2 4 13 14 4 2h6l6-5v-7l-3-5-7-5-6-2z" fill="#060606"/>
<path transform="translate(335,782)" d="m0 0 14 1 7 2 1 3-6 23-9 31 13-4 5-5 3-15-1-15 12-7 4 1 5 13v13l-4 14-9 14-8 8-10 4-13 1-15-2-8-4-7-8-7-12-2-7v-13l4-13 9-14 5-4 11-4zm0 20-9 3-5 5-3 5-1 2v11l4 7 7 4 3-2 8-32-1-3z" fill="#080808"/>
<path transform="translate(358,690)" d="m0 0h13l12 4 33 15 6 4-6 16-1 3-6-1-25-11-9-4-5-1h-8l-5 3-5 10v8l4 6 7 6 15 7 21 8 1 4-8 18-2 1-35-16-35-14 1-6 5-12 4-2 6 2-2-14 4-16 5-8 8-7z" fill="#040404"/>
<path transform="translate(758,318)" d="m0 0h11l10 3 6 4 8 8 7 11 1 7-10 5-35 12-7 3h-3l4 5 7 4h11l12-5 5-6 4-5 15 8-1 6-6 7-14 9-10 4-4 1h-19l-10-4-10-8-7-10-3-9v-17l4-10 9-11 8-6 12-5zm-4 19-8 4-4 5-2 5v9l7-1 26-11 4-2-1-4-6-4-3-1z" fill="#060606"/>
<path transform="translate(1516,1392)" d="m0 0 4 1 4 9 2 4-1 4-10 5-10 9-5 6-2 5 1 4 5 1 9-5 10-9 10-6 3-1h10l7 4 5 5 3 6 1 4v8l-3 10-4 6-9 10-11 11-6 4-4-1-7-13v-3l14-8 6-7 3-8-1-6-7 1-17 14-9 5-6 2-9-1-8-6-5-9-1-8 3-10 7-14 11-11 16-11z" fill="#070707"/>
<path transform="translate(599,1513)" d="m0 0h10l10 3 10 6 4 3v2h2l8 13 3 8v15l-5 14-6 8-8 6-10 4-7 1h-8l-12-3-12-7-9-8-6-12-1-4v-10l1-1 13 1 7 2 3 12 4 5 5 3 4 1h9l7-4 8-11 1-4v-8l-3-6v-2l-4-2-9-4-13 1-4-6-5-11 3-3z" fill="#060606"/>
<path transform="translate(407,607)" d="m0 0h8v18l-3 2-9 3-5 5-4 6v11l5 8 14 7h7l10-4 5-6 1-3v-17l12-9 4 1 4 8 1 3v11l-3 10-7 11-9 10-6 4-11 3h-17l-12-4-7-5-7-11-4-9-1-4v-10l4-13 8-14 8-7z" fill="#060606"/>
<path transform="translate(1158,293)" d="m0 0 22 6 2 8 3 32v16l8-7 7-9h2l2-4 7-8 8-12 2-2 10 1 12 3-5 9-8 10-11 12-9 13-10 11-9 11-5 1-19-6-2-12-4-40-2-23z" fill="#040404"/>
<path transform="translate(714,1577)" d="m0 0 6 1 16 7-2 5-11 23-7 14-3 8v4l7 4-1 5-4 11-7-1-6-1-6 8-8 7-7 3h-10l-10-4-12-8-1-3 9-11 5 1 5 4 7 1 6-5 2-5-7-4-11-4 2-6 5-10 6 1 9 5h3l14-27z" fill="#080808"/>
<path transform="translate(785,1608)" d="m0 0 15 2 10 3 6 4 6 9 1 4v9l-7 25-2 7v5l9 4-1 5-3 10-2 1-10-3-4 16-1 2-9-1-11-4-2-4 3-9 2-7-15-3-4-2 1-6 3-10 1-1 8 1 11 3 9-30v-8l-6-3-9-2v-16z" fill="#070707"/>
<path transform="translate(375,1176)" d="m0 0 5 1 5 8 3 10v16l-4 8-6 5-8 4-19 7-12 3 3 11-10 5-5 1-2-1-2-9-2-1-14 5-3-1-7-17v-3l16-6h2l-5-15 1-4 11-5h4l6 17 16-4 14-5 6-5v-7l-3-6v-4z" fill="#060606"/>
<path transform="translate(1625,918)" d="m0 0 12 3 49 14 27 6 49 14 2 1 1 3 1 16-3 1-42-12-30-7-52-15-13-4-1-2z" fill="#050505"/>
<path transform="translate(1356,338)" d="m0 0 5 1 15 9-2 5-8 13-8 17-10 16-8 14-8 16-7 12-3 1-18-9 2-5 15-29 14-23 8-16 12-21z" fill="#060606"/>
<path transform="translate(352,1060)" d="m0 0h8l1 2 1 20-2 1-78 7-26 3-2-3-2-19 1-1 52-6z" fill="#050505"/>
<path transform="translate(487,1391)" d="m0 0 4 1 10 13 2 2-1 4-11 7-11 10-20 15-13 11-28 21-3-1-5-9-1-3-4-2 1-4 10-9 13-10 8-6 13-11 13-10 15-12z" fill="#050505"/>
<path transform="translate(351,1018)" d="m0 0h6l1 1 1 21-3 1-93 5h-13l-1-8v-14l3-1z" fill="#060606"/>
<path transform="translate(1732,876)" d="m0 0 4 1 2 13v9l-28 5-50 8-16 2h-7l-2-23 3-2 56-7z" fill="#040404"/>
<path transform="translate(442,1324)" d="m0 0h3l6 10 5 6-1 4-17 11-10 6-11 6-15 10-21 12-10 6-4-1-9-16 2-4 10-7 18-10 16-10 15-9 14-8z" fill="#040404"/>
<path transform="translate(1594,592)" d="m0 0 4 2 8 12 2 2-1 4-5 1v2l9 3 7 7 4 6-1 4-10 5-3 2h-3l-7-8-8-4-9 1-16 8-20 13-4 1-8-15-1-5 13-9 19-12 18-11z" fill="#060606"/>
<path transform="translate(866,1629)" d="m0 0 8 1 13 3 1 1-1 10-5 28-9 39-5-1-15-4-1-5 2-4-13 5h-14l-1-1 1-10 2-9h15l8-4 4-4 3-9 6-34z" fill="#070707"/>
<path transform="translate(1195,1612)" d="m0 0 3 2 13 44 6 26v3l-18 5-3-1-1-6h-3l-2 5-7 7-8 4-4-1-5-15v-4l10-3 6-4 3-8v-9l-5-21-4-13v-6l6-2z" fill="#060606"/>
<path transform="translate(1460,1449)" d="m0 0 4 2 7 8 13 12 5 5v2l4 2 23 23-6 7-9 9-4-1-23-23-6-7-23-23 1-4 11-9z" fill="#0B0B0B"/>
<path transform="translate(753,1594)" d="m0 0 7 1 14 6 1 3-10 24-8 23-10 23-5-1-16-7 3-9 9-24 7-19 7-17z" fill="#090909"/>
<path transform="translate(669,1553)" d="m0 0 6 1 14 8-3 10-5 10-7 11-10 17-8 16-3 5-5-1-14-9-1-3 13-24 12-19 8-16z" fill="#060606"/>
<path transform="translate(573,1482)" d="m0 0 8 4 9 8-2 5-6 9-8 8-7 8-8 11-9 9-8 11-4-1-8-8-6-5 2-4 7-7 10-14 10-10 8-10 6-8 4-5z" fill="#070707"/>
<path transform="translate(279,976)" d="m0 0 78 2v22h-54l-24-1-1-5z" fill="#030303"/>
<path transform="translate(1094,1634)" d="m0 0 9 2 6 5 1 2v10l-4 6-6 3h-10l-5-3-3-6-1-7 3-7 5-4z" fill="#0C0C0C"/>
<path transform="translate(1591,707)" d="m0 0 9 1 7 5 2 4v8l-4 6-5 4-8 1-7-3-5-10 1-7 6-7z" fill="#090909"/>
<path transform="translate(545,508)" d="m0 0h10l6 4 3 5v8l-3 6-4 4-3 1h-8l-5-3-3-3-2-6 1-9 5-5z" fill="#0A0A0A"/>
<path transform="translate(252,973)" d="m0 0 8 1 5 6 2 5-2 10-5 6-2 1-9-1-5-4-3-7v-6l5-8z" fill="#0F0F0F"/>
<path transform="translate(625,1634)" d="m0 0h8l7 4 4 6-1 8-5 7-2 1h-7l-7-3-6-7v-9l4-5z" fill="#050505"/>
<path transform="translate(722,1680)" d="m0 0h8l6 3 4 4 1 8-4 8-4 3h-7l-7-3-4-4-2-6 1-6 4-5z" fill="#0A0A0A"/>
<path transform="translate(1521,1515)" d="m0 0h9l7 6 1 3v7l-4 6-6 4-7 1-6-3-3-3-1-9 4-8z" fill="#090909"/>
<path transform="translate(512,1553)" d="m0 0h6l9 6 3 4 1 5-4 8-6 4-8-1-8-7-2-4v-7l4-5z" fill="#080808"/>
<path transform="translate(1461,445)" d="m0 0 3 1-6 5 2-5zm-4 6m-1 1m-1 1m-1 1m-1 1m-1 1m-1 1m-1 1m-1 1m-2 1 2 1-8 8v-3z" fill="#636363"/>
</svg>
